<svg width="182" height="34" viewBox="0 0 182 34" fill="none" xmlns="http://www.w3.org/2000/svg">
<path d="M3.22949 8.03711L3.3291 10.2949C4.7015 8.56836 6.49447 7.70508 8.70801 7.70508C12.5042 7.70508 14.4189 9.84668 14.4521 14.1299V26H11.3809V14.1133C11.3698 12.8184 11.071 11.861 10.4844 11.2412C9.90885 10.6214 9.00684 10.3115 7.77832 10.3115C6.78223 10.3115 5.90788 10.5771 5.15527 11.1084C4.40267 11.6396 3.81608 12.3369 3.39551 13.2002V26H0.324219V8.03711H3.22949ZM18.2705 16.8525C18.2705 15.0928 18.6136 13.5101 19.2998 12.1045C19.9971 10.6989 20.96 9.61426 22.1885 8.85059C23.4281 8.08691 24.8392 7.70508 26.4219 7.70508C28.8678 7.70508 30.8434 8.55176 32.3486 10.2451C33.8649 11.9385 34.623 14.1908 34.623 17.002V17.2178C34.623 18.9665 34.2855 20.5381 33.6104 21.9326C32.9463 23.3161 31.9889 24.3952 30.7383 25.1699C29.4987 25.9447 28.071 26.332 26.4551 26.332C24.0202 26.332 22.0446 25.4854 20.5283 23.792C19.0231 22.0986 18.2705 19.8574 18.2705 17.0684V16.8525ZM21.3584 17.2178C21.3584 19.21 21.8177 20.8092 22.7363 22.0156C23.666 23.222 24.9056 23.8252 26.4551 23.8252C28.0156 23.8252 29.2552 23.2165 30.1738 21.999C31.0924 20.7705 31.5518 19.055 31.5518 16.8525C31.5518 14.8825 31.0814 13.2887 30.1406 12.0713C29.2109 10.8428 27.9714 10.2285 26.4219 10.2285C24.9056 10.2285 23.6826 10.8317 22.7529 12.0381C21.8232 13.2445 21.3584 14.971 21.3584 17.2178ZM54.3789 21.7666L57.832 8.03711H60.9033L55.6738 26H53.1836L48.8174 12.3867L44.5674 26H42.0771L36.8643 8.03711H39.9189L43.4551 21.4844L47.6387 8.03711H50.1123L54.3789 21.7666ZM69.918 21.501L74.1016 8.03711H77.3887L70.167 28.7725C69.0492 31.7607 67.2728 33.2549 64.8379 33.2549L64.2568 33.2051L63.1113 32.9893V30.499L63.9414 30.5654C64.9818 30.5654 65.7897 30.3551 66.3652 29.9346C66.9518 29.514 67.4333 28.7448 67.8096 27.627L68.4902 25.8008L62.082 8.03711H65.4355L69.918 21.501ZM80.626 26V1.82812H87.4492C89.5521 1.82812 91.4115 2.29297 93.0273 3.22266C94.6432 4.15234 95.8883 5.47493 96.7627 7.19043C97.6481 8.90592 98.0964 10.876 98.1074 13.1006V14.6445C98.1074 16.9245 97.6647 18.9222 96.7793 20.6377C95.9049 22.3532 94.6488 23.6702 93.0107 24.5889C91.3838 25.5075 89.4857 25.9779 87.3164 26H80.626ZM83.8135 4.45117V23.3936H87.167C89.624 23.3936 91.5332 22.6299 92.8945 21.1025C94.2669 19.5752 94.9531 17.4004 94.9531 14.5781V13.167C94.9531 10.4222 94.3057 8.29167 93.0107 6.77539C91.7269 5.24805 89.9007 4.47331 87.5322 4.45117H83.8135ZM101.644 16.8525C101.644 15.0928 101.987 13.5101 102.673 12.1045C103.37 10.6989 104.333 9.61426 105.562 8.85059C106.801 8.08691 108.212 7.70508 109.795 7.70508C112.241 7.70508 114.216 8.55176 115.722 10.2451C117.238 11.9385 117.996 14.1908 117.996 17.002V17.2178C117.996 18.9665 117.659 20.5381 116.983 21.9326C116.319 23.3161 115.362 24.3952 114.111 25.1699C112.872 25.9447 111.444 26.332 109.828 26.332C107.393 26.332 105.418 25.4854 103.901 23.792C102.396 22.0986 101.644 19.8574 101.644 17.0684V16.8525ZM104.731 17.2178C104.731 19.21 105.191 20.8092 106.109 22.0156C107.039 23.222 108.279 23.8252 109.828 23.8252C111.389 23.8252 112.628 23.2165 113.547 21.999C114.465 20.7705 114.925 19.055 114.925 16.8525C114.925 14.8825 114.454 13.2887 113.514 12.0713C112.584 10.8428 111.344 10.2285 109.795 10.2285C108.279 10.2285 107.056 10.8317 106.126 12.0381C105.196 13.2445 104.731 14.971 104.731 17.2178ZM124.736 8.03711L124.819 10.0293C126.136 8.47982 127.913 7.70508 130.148 7.70508C132.661 7.70508 134.371 8.66797 135.278 10.5938C135.876 9.73047 136.651 9.0332 137.603 8.50195C138.565 7.9707 139.7 7.70508 141.006 7.70508C144.946 7.70508 146.949 9.79134 147.016 13.9639V26H143.944V14.1465C143.944 12.8626 143.651 11.9053 143.064 11.2744C142.478 10.6325 141.493 10.3115 140.109 10.3115C138.969 10.3115 138.023 10.6546 137.271 11.3408C136.518 12.016 136.081 12.929 135.959 14.0801V26H132.871V14.2295C132.871 11.6175 131.593 10.3115 129.036 10.3115C127.022 10.3115 125.644 11.1693 124.902 12.8848V26H121.831V8.03711H124.736ZM151.747 24.8047C151.747 24.4173 151.869 24.0908 152.112 23.8252C152.367 23.5485 152.715 23.4102 153.158 23.4102C153.601 23.4102 153.95 23.5485 154.204 23.8252C154.459 24.0908 154.586 24.4173 154.586 24.8047C154.586 25.1921 154.459 25.513 154.204 25.7676C153.95 26.0111 153.601 26.1328 153.158 26.1328C152.715 26.1328 152.367 26.0111 152.112 25.7676C151.869 25.513 151.747 25.1921 151.747 24.8047ZM174.508 17.2012C174.508 20.0013 173.888 22.2259 172.648 23.875C171.409 25.513 169.749 26.332 167.668 26.332C165.211 26.332 163.329 25.4688 162.023 23.7422V32.9062H160.048V8.03711H161.891L161.99 10.5771C163.285 8.66243 165.161 7.70508 167.618 7.70508C169.765 7.70508 171.448 8.51855 172.665 10.1455C173.894 11.7725 174.508 14.0303 174.508 16.9189V17.2012ZM172.516 16.8525C172.516 14.5615 172.045 12.752 171.104 11.4238C170.164 10.0957 168.852 9.43164 167.17 9.43164C165.952 9.43164 164.907 9.72493 164.032 10.3115C163.158 10.8981 162.488 11.7503 162.023 12.8682V21.4844C162.499 22.5137 163.18 23.2995 164.065 23.8418C164.951 24.3841 165.997 24.6553 167.203 24.6553C168.874 24.6553 170.175 23.9912 171.104 22.6631C172.045 21.3239 172.516 19.387 172.516 16.8525ZM181.148 26H179.156V0.5H181.148V26Z" fill="white"/>
</svg>
